<svg width="1716" height="1314" viewBox="0 0 1716 1314" fill="none" xmlns="http://www.w3.org/2000/svg">
<g filter="url(#filter0_f_38_54)">
<path fill-rule="evenodd" clip-rule="evenodd" d="M1481.57 894.227V894.227L1479.32 897.211L1477.05 900.133L1474.77 902.995L1472.49 905.797L1470.2 908.541L1467.93 911.227L1465.66 913.856L1463.4 916.432L1461.16 918.955L1458.93 921.428L1456.74 923.853L1454.57 926.232L1452.43 928.568L1450.33 930.864L1448.27 933.122L1446.26 935.348L1444.3 937.542L1442.38 939.711L1440.53 941.857L1438.73 943.984L1437 946.096L1435.33 948.198L1433.73 950.295L1432.2 952.39L1430.74 954.488L1429.35 956.594L1428.04 958.713L1426.8 960.849L1425.64 963.008L1424.56 965.193L1423.55 967.41L1422.63 969.665L1421.78 971.961L1421.01 974.303L1420.31 976.697L1419.69 979.146L1419.14 981.655L1418.65 984.225L1418.23 986.861L1417.87 989.564L1417.56 992.337L1417.29 995.18L1417.07 998.094L1416.88 1001.08L1416.71 1004.13L1416.56 1007.26L1416.42 1010.45L1416.28 1013.71L1416.13 1017.02L1415.97 1020.39L1415.78 1023.82L1415.56 1027.29L1415.29 1030.79L1414.97 1034.34L1414.6 1037.9L1414.15 1041.49L1413.63 1045.09L1413.03 1048.68L1412.34 1052.27L1411.55 1055.84L1410.65 1059.38L1409.66 1062.88L1408.54 1066.34L1407.32 1069.74L1405.97 1073.07L1404.5 1076.32L1402.91 1079.49L1401.19 1082.55L1399.35 1085.51L1397.38 1088.36L1395.29 1091.08L1393.07 1093.66L1390.74 1096.11L1388.28 1098.41L1385.72 1100.56L1383.05 1102.55L1380.27 1104.37L1377.4 1106.03L1374.43 1107.52L1371.38 1108.84L1368.25 1109.98L1365.05 1110.95L1361.78 1111.74L1358.46 1112.37L1355.09 1112.82L1351.68 1113.11L1348.23 1113.24L1344.76 1113.21L1341.27 1113.03L1337.78 1112.7L1334.27 1112.23L1330.77 1111.63L1327.28 1110.9L1323.8 1110.05L1320.35 1109.1L1316.92 1108.04L1313.52 1106.89L1310.16 1105.66L1306.83 1104.36L1303.55 1102.99L1300.31 1101.56L1297.13 1100.09L1293.99 1098.58L1290.9 1097.05L1287.86 1095.49L1284.87 1093.92L1281.94 1092.34L1279.06 1090.77L1276.23 1089.2L1273.44 1087.64L1270.71 1086.09L1268.02 1084.57L1265.38 1083.08L1262.77 1081.61L1260.21 1080.18L1257.69 1078.79L1255.2 1077.44L1252.74 1076.14L1250.31 1074.88L1247.9 1073.68L1245.52 1072.53L1243.16 1071.44L1240.81 1070.41L1238.48 1069.43L1236.15 1068.52L1233.83 1067.67L1231.51 1066.88L1229.19 1066.15L1226.86 1065.49L1224.53 1064.88L1222.18 1064.34L1219.82 1063.85L1217.44 1063.43L1215.03 1063.05L1212.61 1062.74L1210.15 1062.47L1207.67 1062.25L1205.15 1062.08L1202.6 1061.94L1200.01 1061.85L1197.39 1061.79L1194.72 1061.77L1192.02 1061.77L1189.27 1061.79L1186.48 1061.83L1183.65 1061.89L1180.78 1061.96L1177.86 1062.03L1174.89 1062.1L1171.89 1062.16L1168.84 1062.22L1165.75 1062.27L1162.63 1062.29L1159.46 1062.3L1156.26 1062.27L1153.02 1062.21L1149.75 1062.12L1146.45 1061.98L1143.13 1061.8L1139.78 1061.57L1136.4 1061.28L1133.01 1060.94L1129.61 1060.54L1126.19 1060.07L1122.77 1059.53L1119.35 1058.91L1115.93 1058.22L1112.51 1057.45L1109.11 1056.6L1105.72 1055.66L1102.36 1054.64L1099.02 1053.53L1095.72 1052.32L1092.45 1051.02L1089.22 1049.63L1086.05 1048.14L1082.93 1046.55L1079.86 1044.86L1076.87 1043.08L1073.94 1041.2L1071.09 1039.22L1068.32 1037.15L1065.65 1034.97L1063.06 1032.7L1060.58 1030.34L1058.21 1027.88L1055.94 1025.33L1053.8 1022.68L1051.77 1019.96L1049.88 1017.14L1048.11 1014.25L1046.48 1011.28L1044.98 1008.24L1043.63 1005.13L1042.42 1001.95L1041.35 998.717L1040.43 995.429L1039.66 992.093L1039.04 988.713L1038.56 985.295L1038.23 981.845L1038.04 978.368L1038 974.871L1038.1 971.357L1038.34 967.834L1038.72 964.306L1039.23 960.779L1039.87 957.258L1040.64 953.748L1041.53 950.255L1042.53 946.782L1043.65 943.335L1044.87 939.917L1046.19 936.533L1047.61 933.186L1049.11 929.88L1050.7 926.619L1052.37 923.403L1054.1 920.238L1055.9 917.123L1057.76 914.063L1059.67 911.057L1061.62 908.107L1063.61 905.215L1065.64 902.381L1067.69 899.605L1069.76 896.887L1071.84 894.227L1073.94 891.625L1076.04 889.08L1078.13 886.59L1080.23 884.156L1082.31 881.774L1084.38 879.445L1086.43 877.165L1088.46 874.934L1090.46 872.749L1092.44 870.607L1094.39 868.508L1096.31 866.45L1098.2 864.429L1100.07 862.445L1101.9 860.495L1103.7 858.579L1105.48 856.693L1107.23 854.838L1108.96 853.012L1110.66 851.213L1112.34 849.44L1114 847.693L1115.63 845.97L1117.26 844.271L1118.86 842.594L1120.45 840.939L1122.02 839.305L1123.58 837.69L1125.12 836.094L1126.64 834.515L1128.15 832.951L1129.64 831.402L1131.12 829.864L1132.57 828.336L1134 826.816L1135.41 825.301L1136.79 823.79L1138.16 822.28L1139.49 820.768L1140.8 819.253L1142.09 817.734L1143.35 816.207L1144.59 814.671L1145.81 813.124L1147 811.565L1148.17 809.992L1149.32 808.405L1150.45 806.801L1151.56 805.181L1152.66 803.544L1153.75 801.889L1154.83 800.217L1155.9 798.528L1156.96 796.821L1158.02 795.099L1159.09 793.361L1160.16 791.61L1161.23 789.846L1162.31 788.072L1163.41 786.29L1164.52 784.502L1165.65 782.71L1166.81 780.918L1167.98 779.128L1169.18 777.342L1170.41 775.565L1171.68 773.8L1172.97 772.049L1174.3 770.316L1175.67 768.605L1177.07 766.918L1178.51 765.259L1180 763.631L1181.52 762.037L1183.08 760.48L1184.68 758.962L1186.32 757.485L1188 756.052L1189.71 754.664L1191.47 753.323L1193.26 752.03L1195.08 750.785L1196.94 749.588L1198.83 748.441L1200.74 747.342L1202.69 746.29L1204.66 745.286L1206.65 744.327L1208.66 743.414L1210.7 742.543L1212.75 741.714L1214.82 740.924L1216.91 740.172L1219.01 739.454L1221.12 738.769L1223.24 738.114L1225.37 737.486L1227.51 736.882L1229.66 736.299L1231.81 735.735L1233.98 735.187L1236.14 734.652L1238.32 734.127L1240.5 733.611L1242.69 733.101L1244.88 732.595L1247.09 732.093L1249.3 731.594L1251.52 731.098L1253.75 730.603L1255.99 730.111L1258.24 729.62L1260.5 729.129L1262.77 728.639L1265.06 728.149L1267.36 727.658L1269.68 727.164L1272.02 726.669L1274.37 726.17L1276.74 725.666L1279.13 725.158L1281.54 724.644L1283.98 724.123L1286.43 723.596L1288.92 723.061L1291.43 722.517L1293.96 721.965L1296.53 721.405L1299.13 720.835L1301.76 720.257L1304.43 719.67L1307.13 719.075L1309.87 718.473L1312.64 717.864L1315.46 717.25L1318.32 716.631L1321.22 716.009L1324.17 715.386L1327.16 714.764L1330.2 714.145L1333.28 713.531L1336.41 712.925L1339.59 712.329L1342.82 711.747L1346.09 711.181L1349.41 710.636L1352.78 710.114L1356.2 709.619L1359.66 709.155L1363.16 708.725L1366.71 708.333L1370.3 707.984L1373.93 707.681L1377.6 707.429L1381.3 707.231L1385.04 707.09L1388.8 707.012L1392.59 707L1396.41 707.057L1400.25 707.188L1404.1 707.395L1407.97 707.683L1411.84 708.055L1415.72 708.513L1419.6 709.062L1423.47 709.704L1427.34 710.441L1431.19 711.278L1435.02 712.214L1438.83 713.254L1442.6 714.397L1446.34 715.647L1450.04 717.003L1453.7 718.467L1457.3 720.04L1460.85 721.722L1464.33 723.514L1467.75 725.414L1471.09 727.424L1474.36 729.542L1477.54 731.768L1480.63 734.101L1483.63 736.541L1486.52 739.085L1489.3 741.733L1491.97 744.484L1494.52 747.334L1496.94 750.282L1499.24 753.325L1501.39 756.459L1503.41 759.68L1505.29 762.985L1507.01 766.37L1508.59 769.829L1510.01 773.358L1511.28 776.952L1512.4 780.605L1513.35 784.312L1514.15 788.067L1514.79 791.865L1515.28 795.7L1515.6 799.565L1515.78 803.455L1515.8 807.364L1515.66 811.287L1515.38 815.216L1514.96 819.148L1514.4 823.075L1513.69 826.993L1512.86 830.897L1511.9 834.781L1510.81 838.64L1509.61 842.471L1508.29 846.269L1506.87 850.029L1505.35 853.748L1503.74 857.422L1502.03 861.049L1500.25 864.626L1498.39 868.149L1496.46 871.617L1494.47 875.028L1492.42 878.38L1490.33 881.673L1488.19 884.904L1486.01 888.074L1483.8 891.181L1481.57 894.227" fill="#C7E0B8"/>
</g>
<g filter="url(#filter1_f_38_54)">
<path fill-rule="evenodd" clip-rule="evenodd" d="M1016.65 445.663V445.663L1017.18 449.298L1017.67 452.945L1018.11 456.602L1018.51 460.268L1018.85 463.944L1019.15 467.628L1019.4 471.319L1019.6 475.017L1019.75 478.722L1019.85 482.431L1019.9 486.145L1019.9 489.863L1019.85 493.583L1019.75 497.306L1019.6 501.031L1019.4 504.755L1019.15 508.48L1018.84 512.203L1018.48 515.924L1018.07 519.643L1017.61 523.358L1017.1 527.068L1016.53 530.773L1015.91 534.472L1015.24 538.164L1014.52 541.848L1013.75 545.523L1012.92 549.189L1012.04 552.844L1011.11 556.488L1010.13 560.12L1009.09 563.739L1008.01 567.344L1006.87 570.935L1005.68 574.511L1004.45 578.07L1003.16 581.613L1001.82 585.138L1000.44 588.645L999.002 592.133L997.519 595.602L995.988 599.05L994.41 602.477L992.785 605.883L991.113 609.266L989.397 612.627L987.635 615.965L985.829 619.279L983.98 622.568L982.088 625.833L980.154 629.073L978.178 632.288L976.162 635.477L974.106 638.639L972.011 641.776L969.878 644.886L967.708 647.969L965.502 651.026L963.26 654.055L960.984 657.058L958.673 660.033L956.33 662.981L953.954 665.902L951.547 668.796L949.109 671.662L946.641 674.501L944.145 677.313L941.619 680.098L939.066 682.856L936.486 685.587L933.879 688.291L931.247 690.968L928.589 693.618L925.906 696.242L923.2 698.839L920.47 701.41L917.717 703.955L914.941 706.473L912.143 708.966L909.323 711.432L906.482 713.872L903.62 716.287L900.737 718.676L897.834 721.039L894.912 723.377L891.969 725.689L889.007 727.975L886.026 730.236L883.026 732.471L880.007 734.681L876.97 736.864L873.914 739.023L870.84 741.155L867.747 743.261L864.637 745.342L861.509 747.396L858.363 749.424L855.2 751.425L852.018 753.4L848.82 755.348L845.605 757.269L842.372 759.164L839.122 761.031L835.856 762.872L832.573 764.685L829.274 766.471L825.958 768.229L822.626 769.96L819.278 771.664L815.914 773.34L812.535 774.988L809.139 776.607L805.729 778.199L802.303 779.763L798.862 781.298L795.405 782.805L791.934 784.283L788.448 785.731L784.947 787.151L781.431 788.541L777.901 789.902L774.357 791.232L770.798 792.533L767.226 793.803L763.639 795.042L760.038 796.249L756.424 797.425L752.797 798.57L749.156 799.681L745.501 800.761L741.834 801.806L738.154 802.819L734.462 803.797L730.757 804.74L727.039 805.648L723.31 806.521L719.569 807.358L715.817 808.157L712.053 808.92L708.279 809.645L704.494 810.331L700.699 810.978L696.895 811.585L693.081 812.153L689.258 812.679L685.426 813.164L681.586 813.607L677.739 814.007L673.884 814.364L670.023 814.677L666.156 814.946L662.283 815.169L658.405 815.347L654.523 815.479L650.637 815.563L646.749 815.601L642.857 815.591L638.964 815.532L635.07 815.425L631.176 815.268L627.282 815.062L623.39 814.805L619.499 814.498L615.611 814.139L611.727 813.73L607.847 813.268L603.973 812.754L600.105 812.188L596.243 811.569L592.39 810.897L588.546 810.172L584.711 809.393L580.887 808.56L577.074 807.673L573.275 806.733L569.488 805.738L565.716 804.688L561.96 803.585L558.22 802.427L554.497 801.214L550.793 799.947L547.108 798.626L543.444 797.251L539.8 795.821L536.179 794.338L532.581 792.8L529.008 791.21L525.46 789.566L521.937 787.868L518.442 786.119L514.975 784.316L511.537 782.462L508.129 780.556L504.752 778.598L501.407 776.59L498.094 774.532L494.816 772.423L491.571 770.266L488.362 768.059L485.189 765.805L482.052 763.503L478.954 761.155L475.894 758.761L472.873 756.322L469.891 753.838L466.951 751.311L464.051 748.741L461.193 746.13L458.377 743.478L455.604 740.785L452.874 738.054L450.188 735.284L447.547 732.477L444.95 729.635L442.398 726.756L439.891 723.844L437.431 720.899L435.016 717.921L432.648 714.912L430.326 711.873L428.052 708.805L425.824 705.708L423.644 702.584L421.511 699.435L419.426 696.26L417.388 693.061L415.398 689.839L413.456 686.595L411.562 683.33L409.715 680.045L407.917 676.74L406.166 673.418L404.462 670.079L402.807 666.723L401.198 663.352L399.637 659.967L398.124 656.569L396.657 653.159L395.237 649.737L393.863 646.304L392.536 642.862L391.255 639.411L390.02 635.953L388.83 632.487L387.685 629.015L386.585 625.538L385.529 622.056L384.517 618.571L383.549 615.083L382.624 611.593L381.741 608.101L380.901 604.609L380.102 601.117L379.345 597.625L378.629 594.135L377.952 590.648L377.316 587.163L376.718 583.681L376.159 580.204L375.638 576.731L375.154 573.264L374.707 569.802L374.297 566.346L373.922 562.897L373.582 559.456L373.277 556.021L373.006 552.595L372.769 549.178L372.564 545.769L372.392 542.369L372.252 538.978L372.143 535.598L372.065 532.227L372.017 528.867L372 525.518L372.012 522.179L372.053 518.851L372.123 515.534L372.221 512.229L372.347 508.936L372.5 505.654L372.68 502.384L372.887 499.126L373.121 495.88L373.381 492.646L373.666 489.425L373.977 486.216L374.314 483.019L374.675 479.835L375.062 476.664L375.473 473.506L375.909 470.36L376.37 467.227L376.855 464.107L377.364 461L377.897 457.906L378.455 454.825L379.037 451.758L379.643 448.703L380.273 445.663L380.928 442.635L381.608 439.621L382.313 436.621L383.042 433.634L383.797 430.662L384.578 427.704L385.384 424.76L386.217 421.831L387.076 418.916L387.962 416.017L388.875 413.133L389.816 410.264L390.785 407.412L391.782 404.575L392.808 401.756L393.863 398.954L394.948 396.169L396.063 393.402L397.208 390.653L398.383 387.924L399.59 385.214L400.828 382.523L402.097 379.854L403.399 377.205L404.732 374.578L406.098 371.973L407.497 369.392L408.928 366.833L410.392 364.299L411.889 361.79L413.42 359.306L414.983 356.848L416.579 354.417L418.209 352.014L419.871 349.638L421.565 347.291L423.293 344.974L425.052 342.686L426.844 340.429L428.667 338.204L430.521 336.01L432.406 333.848L434.321 331.72L436.265 329.624L438.239 327.563L440.241 325.535L442.27 323.542L444.326 321.585L446.409 319.662L448.516 317.775L450.648 315.924L452.802 314.109L454.98 312.33L457.178 310.587L459.396 308.88L461.634 307.209L463.889 305.574L466.161 303.974L468.448 302.41L470.749 300.882L473.064 299.388L475.39 297.928L477.727 296.503L480.074 295.111L482.429 293.752L484.791 292.425L487.159 291.13L489.531 289.866L491.908 288.633L494.287 287.429L496.668 286.254L499.049 285.107L501.43 283.988L503.809 282.894L506.187 281.826L508.56 280.782L510.93 279.762L513.295 278.764L515.655 277.788L518.008 276.832L520.353 275.896L522.692 274.978L525.022 274.077L527.343 273.192L529.655 272.322L531.957 271.467L534.25 270.625L536.532 269.795L538.804 268.975L541.064 268.166L543.314 267.366L545.553 266.574L547.781 265.788L549.997 265.009L552.203 264.236L554.398 263.467L556.582 262.701L558.756 261.938L560.919 261.177L563.071 260.417L565.214 259.657L567.348 258.897L569.472 258.135L571.587 257.371L573.693 256.604L575.791 255.834L577.882 255.06L579.966 254.281L582.042 253.496L584.113 252.705L586.178 251.909L588.239 251.105L590.295 250.294L592.347 249.475L594.397 248.649L596.444 247.814L598.49 246.971L600.535 246.12L602.58 245.259L604.626 244.391L606.673 243.514L608.723 242.628L610.776 241.734L612.833 240.832L614.895 239.922L616.962 239.005L619.036 238.081L621.117 237.15L623.205 236.213L625.303 235.27L627.409 234.322L629.526 233.37L631.654 232.414L633.792 231.455L635.944 230.493L638.108 229.531L640.285 228.568L642.476 227.605L644.682 226.643L646.902 225.684L649.139 224.728L651.391 223.776L653.659 222.829L655.944 221.889L658.247 220.955L660.566 220.03L662.904 219.114L665.259 218.208L667.632 217.314L670.023 216.432L672.433 215.564L674.861 214.709L677.307 213.87L679.773 213.048L682.256 212.242L684.758 211.455L687.279 210.686L689.817 209.937L692.374 209.209L694.95 208.503L697.543 207.818L700.153 207.157L702.781 206.52L705.427 205.908L708.089 205.321L710.769 204.761L713.464 204.228L716.176 203.723L718.903 203.246L721.645 202.8L724.402 202.383L727.174 201.998L729.96 201.645L732.759 201.324L735.571 201.036L738.395 200.782L741.231 200.562L744.079 200.377L746.938 200.228L749.806 200.115L752.684 200.04L755.572 200.001L758.467 200L761.37 200.037L764.28 200.114L767.197 200.229L770.119 200.384L773.047 200.579L775.978 200.815L778.913 201.091L781.852 201.408L784.792 201.766L787.734 202.166L790.676 202.608L793.619 203.092L796.561 203.618L799.501 204.187L802.44 204.798L805.375 205.451L808.307 206.147L811.236 206.885L814.159 207.666L817.077 208.489L819.989 209.354L822.895 210.261L825.793 211.209L828.685 212.199L831.568 213.23L834.442 214.302L837.308 215.415L840.164 216.567L843.011 217.76L845.847 218.992L848.672 220.263L851.487 221.573L854.29 222.922L857.082 224.308L859.862 225.732L862.629 227.194L865.384 228.692L868.126 230.227L870.855 231.798L873.571 233.405L876.273 235.047L878.961 236.725L881.635 238.437L884.295 240.183L886.94 241.964L889.57 243.778L892.186 245.626L894.786 247.507L897.37 249.422L899.939 251.368L902.492 253.347L905.029 255.358L907.549 257.402L910.053 259.476L912.539 261.583L915.009 263.72L917.46 265.889L919.894 268.088L922.31 270.318L924.707 272.579L927.086 274.87L929.446 277.192L931.786 279.543L934.106 281.924L936.407 284.335L938.686 286.775L940.945 289.245L943.183 291.745L945.399 294.273L947.593 296.831L949.765 299.417L951.914 302.032L954.039 304.676L956.141 307.348L958.219 310.048L960.272 312.776L962.3 315.532L964.303 318.316L966.28 321.128L968.23 323.967L970.153 326.833L972.049 329.726L973.916 332.646L975.755 335.592L977.564 338.565L979.344 341.564L981.094 344.589L982.812 347.64L984.5 350.716L986.155 353.818L987.777 356.944L989.366 360.095L990.922 363.27L992.443 366.469L993.928 369.691L995.379 372.937L996.793 376.205L998.17 379.496L999.51 382.81L1000.81 386.144L1002.08 389.5L1003.3 392.877L1004.49 396.273L1005.63 399.69L1006.73 403.126L1007.8 406.581L1008.82 410.054L1009.8 413.544L1010.74 417.052L1011.63 420.576L1012.48 424.117L1013.29 427.673L1014.05 431.244L1014.77 434.828L1015.44 438.427L1016.07 442.039L1016.65 445.663" fill="#4536E6"/>
</g>
<g filter="url(#filter2_f_38_54)">
<path fill-rule="evenodd" clip-rule="evenodd" d="M1351.51 598.834V598.834L1350.64 601.661L1349.69 604.463L1348.68 607.237L1347.6 609.982L1346.46 612.697L1345.26 615.379L1344 618.028L1342.68 620.642L1341.32 623.221L1339.9 625.764L1338.44 628.269L1336.94 630.738L1335.4 633.169L1333.83 635.562L1332.23 637.919L1330.61 640.24L1328.97 642.525L1327.32 644.777L1325.66 646.995L1323.99 649.183L1322.33 651.341L1320.66 653.472L1319.01 655.578L1317.37 657.662L1315.75 659.725L1314.14 661.772L1312.56 663.805L1311 665.827L1309.48 667.841L1307.98 669.851L1306.52 671.858L1305.08 673.868L1303.69 675.882L1302.33 677.904L1301.01 679.937L1299.72 681.984L1298.47 684.048L1297.26 686.132L1296.08 688.24L1294.94 690.373L1293.83 692.534L1292.75 694.726L1291.71 696.952L1290.69 699.213L1289.7 701.512L1288.74 703.85L1287.8 706.23L1286.88 708.651L1285.98 711.117L1285.09 713.627L1284.21 716.182L1283.33 718.782L1282.46 721.429L1281.6 724.12L1280.72 726.857L1279.84 729.637L1278.94 732.461L1278.03 735.326L1277.1 738.231L1276.15 741.173L1275.16 744.152L1274.15 747.163L1273.1 750.205L1272.01 753.273L1270.87 756.366L1269.69 759.479L1268.45 762.607L1267.16 765.749L1265.82 768.898L1264.41 772.051L1262.94 775.203L1261.41 778.35L1259.8 781.486L1258.13 784.607L1256.39 787.709L1254.57 790.785L1252.68 793.832L1250.71 796.843L1248.66 799.815L1246.54 802.742L1244.35 805.62L1242.07 808.444L1239.72 811.21L1237.3 813.914L1234.8 816.553L1232.23 819.122L1229.59 821.619L1226.88 824.04L1224.1 826.384L1221.25 828.647L1218.35 830.828L1215.38 832.924L1212.35 834.935L1209.27 836.857L1206.13 838.69L1202.94 840.433L1199.71 842.083L1196.43 843.64L1193.1 845.103L1189.74 846.469L1186.33 847.738L1182.9 848.908L1179.43 849.978L1175.93 850.944L1172.4 851.805L1168.86 852.558L1165.29 853.201L1161.7 853.729L1158.1 854.14L1154.49 854.432L1150.87 854.602L1147.25 854.647L1143.63 854.567L1140.02 854.358L1136.41 854.02L1132.82 853.551L1129.25 852.952L1125.69 852.221L1122.16 851.358L1118.66 850.364L1115.2 849.239L1111.77 847.984L1108.39 846.601L1105.05 845.091L1101.77 843.456L1098.53 841.699L1095.36 839.821L1092.24 837.827L1089.19 835.719L1086.21 833.501L1083.3 831.176L1080.46 828.75L1077.7 826.226L1075.02 823.608L1072.41 820.903L1069.89 818.115L1067.45 815.248L1065.09 812.309L1062.82 809.303L1060.64 806.235L1058.54 803.111L1056.52 799.937L1054.59 796.718L1052.75 793.461L1050.98 790.17L1049.3 786.852L1047.71 783.512L1046.19 780.155L1044.75 776.787L1043.38 773.413L1042.09 770.037L1040.87 766.666L1039.71 763.302L1038.62 759.951L1037.6 756.617L1036.63 753.305L1035.72 750.016L1034.85 746.757L1034.04 743.53L1033.27 740.338L1032.54 737.184L1031.85 734.072L1031.19 731.003L1030.56 727.98L1029.95 725.005L1029.36 722.079L1028.79 719.204L1028.23 716.381L1027.67 713.611L1027.13 710.894L1026.58 708.23L1026.02 705.621L1025.46 703.065L1024.88 700.563L1024.29 698.115L1023.68 695.719L1023.05 693.376L1022.38 691.084L1021.68 688.842L1020.94 686.651L1020.17 684.508L1019.34 682.413L1018.46 680.363L1017.53 678.358L1016.54 676.394L1015.48 674.469L1014.36 672.58L1013.17 670.725L1011.91 668.898L1010.58 667.097L1009.17 665.318L1007.69 663.556L1006.14 661.807L1004.51 660.067L1002.81 658.332L1001.03 656.596L999.187 654.855L997.272 653.105L995.289 651.341L993.242 649.559L991.135 647.754L988.97 645.921L986.752 644.058L984.485 642.159L982.174 640.22L979.823 638.239L977.439 636.212L975.027 634.136L972.592 632.007L970.14 629.824L967.678 627.584L965.211 625.285L962.746 622.925L960.29 620.503L957.849 618.018L955.429 615.469L953.036 612.856L950.678 610.178L948.36 607.437L946.088 604.632L943.869 601.764L941.707 598.834L939.61 595.844L937.582 592.796L935.628 589.691L933.753 586.531L931.962 583.319L930.259 580.057L928.649 576.748L927.136 573.396L925.724 570.003L924.417 566.572L923.22 563.108L922.138 559.613L921.172 556.093L920.329 552.552L919.611 548.993L919.021 545.422L918.562 541.843L918.238 538.26L918.05 534.68L918 531.107L918.091 527.545L918.323 524.001L918.698 520.479L919.217 516.985L919.88 513.523L920.687 510.1L921.639 506.72L922.734 503.388L923.973 500.111L925.354 496.893L926.877 493.739L928.541 490.655L930.345 487.646L932.287 484.717L934.365 481.874L936.576 479.12L938.919 476.462L941.388 473.902L943.98 471.445L946.691 469.094L949.515 466.852L952.448 464.721L955.482 462.705L958.613 460.804L961.833 459.02L965.136 457.354L968.516 455.805L971.964 454.374L975.473 453.06L979.037 451.861L982.648 450.777L986.298 449.804L989.979 448.939L993.685 448.181L997.408 447.525L1001.14 446.967L1004.88 446.503L1008.61 446.128L1012.33 445.838L1016.03 445.626L1019.72 445.487L1023.37 445.415L1026.99 445.404L1030.57 445.449L1034.11 445.541L1037.6 445.676L1041.04 445.847L1044.43 446.046L1047.76 446.268L1051.03 446.507L1054.24 446.756L1057.39 447.008L1060.48 447.259L1063.5 447.503L1066.46 447.733L1069.36 447.945L1072.2 448.135L1074.97 448.297L1077.69 448.428L1080.35 448.524L1082.96 448.581L1085.51 448.596L1088.01 448.565L1090.46 448.485L1092.86 448.352L1095.23 448.163L1097.55 447.914L1099.84 447.604L1102.09 447.228L1104.31 446.785L1106.5 446.272L1108.67 445.687L1110.83 445.029L1112.96 444.296L1115.09 443.487L1117.2 442.601L1119.32 441.639L1121.43 440.599L1123.55 439.484L1125.68 438.291L1127.82 437.024L1129.98 435.682L1132.16 434.267L1134.37 432.781L1136.61 431.225L1138.88 429.6L1141.19 427.908L1143.54 426.152L1145.93 424.334L1148.38 422.456L1150.87 420.523L1153.43 418.54L1156.04 416.51L1158.71 414.439L1161.44 412.334L1164.24 410.201L1167.11 408.047L1170.05 405.879L1173.06 403.705L1176.14 401.533L1179.29 399.372L1182.51 397.23L1185.8 395.117L1189.17 393.041L1192.59 391.012L1196.09 389.039L1199.64 387.131L1203.26 385.298L1206.93 383.548L1210.65 381.891L1214.42 380.335L1218.23 378.889L1222.08 377.561L1225.96 376.358L1229.86 375.288L1233.78 374.358L1237.71 373.573L1241.65 372.941L1245.58 372.465L1249.5 372.15L1253.41 372L1257.29 372.018L1261.14 372.207L1264.95 372.569L1268.72 373.103L1272.43 373.811L1276.09 374.692L1279.67 375.745L1283.19 376.968L1286.63 378.358L1289.98 379.912L1293.24 381.627L1296.42 383.496L1299.49 385.516L1302.47 387.681L1305.34 389.985L1308.1 392.42L1310.76 394.982L1313.31 397.661L1315.75 400.452L1318.08 403.346L1320.29 406.336L1322.4 409.413L1324.4 412.571L1326.3 415.8L1328.09 419.093L1329.78 422.441L1331.37 425.838L1332.88 429.275L1334.29 432.746L1335.61 436.242L1336.86 439.757L1338.03 443.286L1339.14 446.822L1340.18 450.359L1341.15 453.893L1342.08 457.42L1342.95 460.935L1343.78 464.436L1344.57 467.92L1345.32 471.384L1346.03 474.828L1346.71 478.25L1347.37 481.65L1348 485.026L1348.6 488.378L1349.18 491.707L1349.74 495.011L1350.29 498.293L1350.81 501.552L1351.32 504.788L1351.81 508.004L1352.29 511.199L1352.75 514.376L1353.2 517.535L1353.62 520.677L1354.03 523.804L1354.42 526.917L1354.79 530.017L1355.13 533.105L1355.45 536.183L1355.74 539.252L1356 542.312L1356.23 545.364L1356.42 548.41L1356.57 551.448L1356.68 554.48L1356.74 557.506L1356.76 560.525L1356.73 563.537L1356.64 566.543L1356.49 569.54L1356.29 572.529L1356.03 575.509L1355.7 578.478L1355.31 581.434L1354.85 584.377L1354.32 587.306L1353.72 590.217L1353.06 593.11L1352.32 595.983L1351.51 598.834" fill="#B08C24"/>
</g>
<g filter="url(#filter3_f_38_54)">
<path fill-rule="evenodd" clip-rule="evenodd" d="M1123.04 827.558V827.558L1121.98 831.35L1120.73 835.11L1119.29 838.833L1117.66 842.512L1115.85 846.141L1113.87 849.716L1111.73 853.231L1109.43 856.683L1106.99 860.066L1104.41 863.378L1101.7 866.615L1098.88 869.775L1095.95 872.857L1092.93 875.858L1089.83 878.777L1086.65 881.615L1083.41 884.371L1080.12 887.046L1076.79 889.641L1073.42 892.157L1070.03 894.595L1066.62 896.958L1063.21 899.247L1059.8 901.466L1056.39 903.616L1053 905.701L1049.63 907.725L1046.29 909.69L1042.99 911.6L1039.72 913.46L1036.49 915.272L1033.32 917.042L1030.2 918.774L1027.13 920.471L1024.12 922.138L1021.18 923.779L1018.3 925.399L1015.48 927L1012.73 928.587L1010.05 930.162L1007.43 931.73L1004.88 933.292L1002.38 934.852L999.954 936.411L997.582 937.973L995.267 939.538L993.006 941.109L990.797 942.688L988.636 944.274L986.522 945.87L984.451 947.477L982.421 949.096L980.429 950.727L978.473 952.372L976.55 954.032L974.658 955.707L972.795 957.398L970.959 959.108L969.148 960.836L967.362 962.585L965.597 964.356L963.854 966.15L962.13 967.97L960.425 969.817L958.739 971.694L957.069 973.603L955.415 975.546L953.777 977.526L952.152 979.546L950.542 981.608L948.943 983.715L947.355 985.87L945.777 988.075L944.207 990.333L942.643 992.647L941.085 995.018L939.528 997.449L937.972 999.942L936.413 1002.5L934.849 1005.12L933.277 1007.8L931.693 1010.55L930.094 1013.37L928.477 1016.25L926.837 1019.19L925.171 1022.19L923.475 1025.26L921.744 1028.37L919.974 1031.54L918.161 1034.76L916.302 1038.02L914.392 1041.32L912.427 1044.66L910.405 1048.02L908.32 1051.4L906.171 1054.8L903.953 1058.21L901.664 1061.61L899.3 1065L896.858 1068.36L894.336 1071.69L891.731 1074.96L889.042 1078.17L886.268 1081.29L883.407 1084.32L880.461 1087.22L877.431 1090L874.319 1092.63L871.127 1095.1L867.859 1097.39L864.52 1099.49L861.115 1101.38L857.649 1103.05L854.13 1104.49L850.565 1105.69L846.962 1106.65L843.328 1107.35L839.673 1107.79L836.006 1107.96L832.335 1107.87L828.67 1107.51L825.021 1106.88L821.396 1105.99L817.804 1104.83L814.254 1103.42L810.755 1101.76L807.314 1099.86L803.939 1097.73L800.637 1095.38L797.413 1092.81L794.275 1090.05L791.226 1087.11L788.271 1084L785.412 1080.73L782.652 1077.33L779.994 1073.81L777.437 1070.17L774.981 1066.46L772.625 1062.67L770.368 1058.82L768.207 1054.94L766.137 1051.04L764.155 1047.13L762.256 1043.24L760.433 1039.37L758.681 1035.55L756.993 1031.78L755.36 1028.09L753.775 1024.47L752.229 1020.95L750.715 1017.53L749.223 1014.23L747.744 1011.05L746.269 1008L744.79 1005.08L743.297 1002.31L741.783 999.67L740.239 997.178L738.658 994.831L737.033 992.627L735.357 990.565L733.624 988.64L731.83 986.849L729.971 985.186L728.042 983.644L726.043 982.214L723.972 980.889L721.828 979.659L719.612 978.513L717.326 977.441L714.973 976.432L712.555 975.474L710.078 974.557L707.545 973.669L704.962 972.799L702.336 971.937L699.674 971.07L696.984 970.189L694.275 969.282L691.557 968.337L688.841 967.344L686.14 966.293L683.463 965.175L680.822 963.982L678.229 962.706L675.693 961.344L673.224 959.889L670.833 958.34L668.529 956.693L666.32 954.946L664.216 953.099L662.225 951.151L660.354 949.103L658.609 946.957L656.997 944.716L655.523 942.382L654.19 939.96L653.003 937.453L651.963 934.868L651.072 932.211L650.33 929.486L649.736 926.702L649.289 923.864L648.986 920.98L648.822 918.057L648.795 915.103L648.897 912.125L649.123 909.13L649.466 906.125L649.917 903.119L650.468 900.116L651.11 897.124L651.832 894.15L652.624 891.197L653.476 888.273L654.376 885.381L655.313 882.525L656.275 879.71L657.25 876.938L658.227 874.211L659.194 871.531L660.139 868.899L661.05 866.316L661.917 863.782L662.729 861.295L663.476 858.855L664.147 856.459L664.733 854.104L665.227 851.788L665.619 849.507L665.903 847.257L666.073 845.033L666.124 842.831L666.05 840.645L665.849 838.471L665.518 836.301L665.056 834.131L664.462 831.954L663.736 829.766L662.882 827.558L661.901 825.327L660.798 823.067L659.578 820.771L658.245 818.435L656.808 816.054L655.273 813.623L653.65 811.14L651.948 808.599L650.175 805.998L648.344 803.336L646.463 800.608L644.545 797.815L642.599 794.956L640.636 792.029L638.668 789.036L636.704 785.976L634.755 782.851L632.834 779.662L630.951 776.413L629.119 773.107L627.35 769.747L625.656 766.337L624.048 762.883L622.538 759.391L621.137 755.866L619.856 752.316L618.706 748.747L617.696 745.166L616.835 741.583L616.13 738.004L615.589 734.437L615.217 730.891L615.02 727.375L615 723.895L615.161 720.46L615.505 717.078L616.032 713.756L616.741 710.501L617.633 707.319L618.703 704.218L619.949 701.202L621.367 698.277L622.951 695.447L624.696 692.716L626.595 690.088L628.641 687.564L630.827 685.146L633.143 682.837L635.581 680.635L638.132 678.541L640.786 676.553L643.535 674.671L646.368 672.891L649.276 671.211L652.25 669.628L655.279 668.137L658.356 666.734L661.471 665.414L664.616 664.173L667.782 663.005L670.963 661.905L674.151 660.867L677.34 659.885L680.523 658.954L683.697 658.069L686.855 657.223L689.995 656.413L693.112 655.632L696.204 654.877L699.269 654.143L702.304 653.426L705.31 652.724L708.285 652.032L711.23 651.349L714.144 650.673L717.028 650.001L719.883 649.333L722.711 648.669L725.513 648.007L728.291 647.348L731.045 646.693L733.779 646.041L736.494 645.395L739.192 644.755L741.875 644.123L744.544 643.5L747.201 642.888L749.848 642.288L752.485 641.703L755.116 641.134L757.74 640.583L760.358 640.053L762.973 639.543L765.584 639.058L768.192 638.6L770.799 638.169L773.403 637.767L776.006 637.394L778.606 637.048L781.202 636.726L783.794 636.426L786.38 636.143L788.961 635.871L791.534 635.605L794.1 635.337L796.658 635.062L799.208 634.77L801.751 634.456L804.287 634.11L806.817 633.728L809.343 633.301L811.868 632.824L814.393 632.29L816.92 631.696L819.454 631.035L821.998 630.305L824.553 629.501L827.126 628.621L829.718 627.664L832.335 626.627L834.98 625.512L837.657 624.319L840.37 623.049L843.124 621.704L845.92 620.289L848.764 618.807L851.658 617.264L854.606 615.666L857.609 614.018L860.671 612.33L863.791 610.609L866.973 608.863L870.216 607.103L873.521 605.339L876.887 603.581L880.313 601.839L883.798 600.125L887.339 598.45L890.934 596.825L894.579 595.262L898.27 593.772L902.003 592.365L905.772 591.053L909.573 589.845L913.399 588.752L917.244 587.782L921.102 586.945L924.965 586.249L928.827 585.7L932.68 585.305L936.516 585.07L940.329 585L944.111 585.098L947.855 585.367L951.553 585.81L955.198 586.426L958.785 587.218L962.306 588.183L965.755 589.32L969.128 590.627L972.418 592.1L975.622 593.735L978.735 595.528L981.754 597.473L984.676 599.564L987.498 601.795L990.219 604.157L992.838 606.645L995.355 609.249L997.769 611.962L1000.08 614.774L1002.29 617.677L1004.41 620.662L1006.43 623.72L1008.36 626.841L1010.2 630.015L1011.97 633.235L1013.65 636.489L1015.27 639.768L1016.83 643.06L1018.34 646.357L1019.81 649.649L1021.25 652.926L1022.67 656.181L1024.07 659.407L1025.48 662.598L1026.89 665.748L1028.32 668.853L1029.77 671.91L1031.26 674.915L1032.8 677.868L1034.38 680.766L1036.02 683.609L1037.73 686.398L1039.5 689.133L1041.36 691.818L1043.29 694.455L1045.31 697.049L1047.41 699.602L1049.6 702.121L1051.87 704.611L1054.23 707.078L1056.67 709.529L1059.19 711.97L1061.78 714.409L1064.44 716.851L1067.16 719.304L1069.93 721.775L1072.74 724.27L1075.6 726.797L1078.47 729.36L1081.36 731.967L1084.25 734.621L1087.14 737.328L1090 740.092L1092.83 742.918L1095.62 745.807L1098.35 748.762L1101.01 751.785L1103.58 754.877L1106.07 758.039L1108.44 761.27L1110.7 764.57L1112.84 767.936L1114.83 771.367L1116.67 774.86L1118.35 778.411L1119.87 782.017L1121.22 785.673L1122.38 789.374L1123.35 793.115L1124.13 796.89L1124.71 800.693L1125.09 804.518L1125.26 808.359L1125.23 812.209L1124.99 816.06L1124.54 819.907L1123.89 823.742L1123.04 827.558" fill="#F0E85E"/>
</g>
<g filter="url(#filter4_f_38_54)">
<path fill-rule="evenodd" clip-rule="evenodd" d="M813.955 748.908V748.908L813.115 752.445L812.246 755.962L811.35 759.46L810.429 762.939L809.483 766.398L808.516 769.838L807.526 773.259L806.517 776.662L805.488 780.046L804.44 783.412L803.375 786.761L802.293 790.092L801.195 793.407L800.08 796.705L798.95 799.987L797.803 803.252L796.639 806.502L795.458 809.737L794.258 812.955L793.037 816.158L791.796 819.344L790.531 822.515L789.241 825.668L787.925 828.803L786.58 831.921L785.205 835.02L783.799 838.098L782.36 841.157L780.886 844.194L779.376 847.208L777.828 850.198L776.24 853.162L774.609 856.1L772.934 859.009L771.212 861.886L769.442 864.731L767.621 867.541L765.748 870.313L763.82 873.045L761.836 875.736L759.795 878.382L757.696 880.98L755.537 883.53L753.319 886.027L751.04 888.47L748.701 890.857L746.301 893.185L743.842 895.452L741.324 897.656L738.748 899.797L736.116 901.871L733.43 903.878L730.691 905.817L727.902 907.687L725.066 909.488L722.185 911.219L719.264 912.881L716.305 914.475L713.312 916.001L710.29 917.46L707.243 918.855L704.174 920.188L701.09 921.461L697.993 922.677L694.89 923.84L691.785 924.954L688.683 926.023L685.589 927.053L682.509 928.047L679.446 929.013L676.405 929.956L673.392 930.882L670.411 931.798L667.465 932.711L664.56 933.628L661.698 934.557L658.882 935.506L656.116 936.481L653.403 937.492L650.743 938.545L648.14 939.649L645.594 940.811L643.105 942.038L640.674 943.338L638.301 944.717L635.984 946.182L633.721 947.738L631.511 949.392L629.351 951.147L627.237 953.008L625.166 954.977L623.134 957.058L621.136 959.252L619.166 961.559L617.22 963.979L615.291 966.511L613.374 969.153L611.461 971.902L609.547 974.752L607.625 977.699L605.688 980.737L603.731 983.86L601.745 987.058L599.726 990.325L597.668 993.651L595.564 997.028L593.41 1000.45L591.202 1003.89L588.934 1007.36L586.604 1010.85L584.208 1014.33L581.745 1017.82L579.211 1021.29L576.606 1024.75L573.929 1028.18L571.179 1031.59L568.355 1034.96L565.458 1038.3L562.487 1041.59L559.443 1044.84L556.327 1048.03L553.139 1051.18L549.88 1054.27L546.551 1057.3L543.153 1060.27L539.688 1063.17L536.155 1066L532.557 1068.77L528.896 1071.45L525.172 1074.06L521.388 1076.58L517.546 1079.01L513.647 1081.34L509.694 1083.58L505.69 1085.72L501.637 1087.74L497.538 1089.65L493.396 1091.43L489.216 1093.1L485 1094.63L480.753 1096.02L476.478 1097.27L472.181 1098.37L467.865 1099.32L463.535 1100.12L459.198 1100.75L454.857 1101.22L450.518 1101.52L446.186 1101.65L441.867 1101.6L437.567 1101.38L433.29 1100.97L429.043 1100.39L424.831 1099.63L420.66 1098.69L416.534 1097.57L412.46 1096.28L408.443 1094.8L404.487 1093.15L400.597 1091.33L396.778 1089.34L393.034 1087.18L389.37 1084.86L385.788 1082.38L382.293 1079.76L378.888 1076.98L375.577 1074.06L372.36 1071.01L369.242 1067.82L366.224 1064.52L363.308 1061.09L360.496 1057.55L357.788 1053.91L355.186 1050.16L352.691 1046.33L350.303 1042.41L348.023 1038.4L345.851 1034.33L343.787 1030.18L341.831 1025.97L339.984 1021.7L338.244 1017.38L336.611 1013.02L335.085 1008.61L333.666 1004.16L332.353 999.681L331.145 995.173L330.042 990.641L329.042 986.088L328.145 981.519L327.35 976.939L326.655 972.351L326.057 967.761L325.556 963.172L325.147 958.59L324.828 954.02L324.594 949.467L324.441 944.939L324.363 940.441L324.351 935.981L324.399 931.567L324.496 927.207L324.632 922.909L324.795 918.682L324.974 914.534L325.154 910.475L325.322 906.51L325.465 902.649L325.568 898.895L325.62 895.255L325.606 891.732L325.514 888.329L325.332 885.048L325.049 881.89L324.653 878.854L324.135 875.941L323.486 873.146L322.696 870.469L321.759 867.904L320.669 865.448L319.419 863.094L318.006 860.836L316.427 858.669L314.679 856.584L312.763 854.573L310.678 852.628L308.425 850.74L306.009 848.901L303.432 847.1L300.701 845.329L297.82 843.578L294.797 841.838L291.642 840.098L288.362 838.35L284.97 836.585L281.474 834.794L277.889 832.969L274.226 831.101L270.5 829.183L266.724 827.208L262.913 825.169L259.082 823.061L255.247 820.879L251.424 818.617L247.628 816.273L243.876 813.842L240.185 811.324L236.569 808.715L233.045 806.016L229.629 803.226L226.336 800.346L223.181 797.378L220.178 794.323L217.34 791.185L214.681 787.968L212.214 784.675L209.948 781.311L207.895 777.883L206.063 774.395L204.462 770.854L203.098 767.268L201.977 763.642L201.105 759.986L200.483 756.306L200.114 752.611L200 748.908L200.139 745.205L200.53 741.51L201.169 737.831L202.053 734.176L203.174 730.552L204.526 726.966L206.101 723.424L207.89 719.932L209.881 716.497L212.065 713.123L214.428 709.814L216.959 706.575L219.643 703.409L222.467 700.318L225.418 697.305L228.481 694.37L231.643 691.514L234.89 688.738L238.209 686.041L241.587 683.422L245.013 680.88L248.475 678.414L251.962 676.022L255.465 673.7L258.974 671.448L262.481 669.262L265.978 667.14L269.459 665.078L272.918 663.074L276.349 661.125L279.745 659.227L283.102 657.376L286.412 655.569L289.672 653.801L292.877 652.069L296.022 650.368L299.103 648.693L302.118 647.041L305.062 645.406L307.935 643.786L310.734 642.175L313.457 640.57L316.105 638.967L318.677 637.363L321.173 635.753L323.593 634.134L325.94 632.504L328.215 630.86L330.418 629.198L332.554 627.518L334.624 625.817L336.631 624.093L338.579 622.344L340.471 620.57L342.31 618.77L344.1 616.944L345.845 615.09L347.549 613.209L349.216 611.301L350.85 609.366L352.456 607.406L354.037 605.422L355.598 603.414L357.144 601.384L358.677 599.334L360.203 597.265L361.725 595.181L363.247 593.082L364.773 590.973L366.308 588.854L367.853 586.73L369.413 584.603L370.991 582.477L372.59 580.354L374.213 578.238L375.863 576.132L377.543 574.041L379.253 571.966L380.998 569.913L382.778 567.884L384.595 565.883L386.451 563.914L388.347 561.98L390.283 560.085L392.261 558.232L394.281 556.424L396.343 554.664L398.447 552.955L400.593 551.3L402.781 549.702L405.009 548.162L407.277 546.683L409.584 545.267L411.928 543.914L414.307 542.626L416.721 541.405L419.167 540.25L421.644 539.162L424.149 538.141L426.681 537.186L429.236 536.297L431.814 535.473L434.411 534.712L437.025 534.014L439.655 533.375L442.297 532.795L444.951 532.27L447.613 531.8L450.283 531.384L452.96 531.02L455.641 530.709L458.326 530.452L461.015 530.25L463.707 530.106L466.4 530.021L469.095 530L471.79 530.045L474.483 530.158L477.175 530.344L479.864 530.604L482.547 530.941L485.224 531.355L487.892 531.85L490.549 532.425L493.194 533.08L495.824 533.817L498.438 534.634L501.032 535.53L503.605 536.504L506.155 537.555L508.68 538.68L511.178 539.876L513.647 541.141L516.085 542.471L518.491 543.863L520.864 545.311L523.202 546.812L525.504 548.362L527.769 549.954L529.998 551.584L532.189 553.245L534.343 554.933L536.461 556.641L538.542 558.364L540.587 560.095L542.599 561.827L544.577 563.556L546.524 565.273L548.442 566.974L550.333 568.651L552.2 570.3L554.045 571.913L555.872 573.485L557.684 575.011L559.484 576.484L561.277 577.9L563.066 579.254L564.856 580.541L566.651 581.757L568.455 582.898L570.273 583.961L572.111 584.941L573.971 585.837L575.86 586.646L577.783 587.366L579.743 587.995L581.747 588.534L583.798 588.98L585.901 589.335L588.062 589.598L590.283 589.771L592.57 589.856L594.926 589.854L597.355 589.767L599.86 589.6L602.445 589.355L605.111 589.037L607.862 588.65L610.699 588.2L613.623 587.691L616.636 587.13L619.738 586.523L622.929 585.877L626.209 585.199L629.576 584.495L633.029 583.774L636.566 583.043L640.185 582.309L643.882 581.582L647.654 580.868L651.497 580.176L655.408 579.513L659.381 578.885L663.413 578.302L667.498 577.768L671.632 577.29L675.81 576.874L680.026 576.526L684.276 576.251L688.555 576.054L692.857 575.938L697.177 575.908L701.51 575.967L705.85 576.121L710.19 576.373L714.524 576.726L718.846 577.184L723.148 577.749L727.425 578.425L731.669 579.214L735.874 580.118L740.033 581.138L744.139 582.276L748.186 583.532L752.168 584.907L756.078 586.402L759.91 588.016L763.658 589.749L767.316 591.599L770.879 593.565L774.341 595.646L777.698 597.841L780.945 600.145L784.078 602.558L787.093 605.075L789.986 607.695L792.755 610.412L795.396 613.224L797.908 616.127L800.29 619.116L802.539 622.188L804.656 625.337L806.639 628.559L808.489 631.849L810.207 635.203L811.793 638.616L813.25 642.082L814.578 645.598L815.78 649.158L816.86 652.758L817.819 656.393L818.66 660.059L819.388 663.751L820.006 667.465L820.518 671.197L820.928 674.944L821.24 678.702L821.458 682.466L821.587 686.235L821.631 690.006L821.594 693.775L821.48 697.539L821.295 701.298L821.041 705.048L820.723 708.788L820.344 712.516L819.909 716.231L819.42 719.931L818.882 723.615L818.297 727.283L817.668 730.934L816.998 734.566L816.289 738.18L815.545 741.775L814.766 745.351L813.955 748.908" fill="#A161D6"/>
</g>
<defs>
<filter id="filter0_f_38_54" x="838" y="507" width="877.795" height="806.242" filterUnits="userSpaceOnUse" color-interpolation-filters="sRGB">
<feFlood flood-opacity="0" result="BackgroundImageFix"/>
<feBlend mode="normal" in="SourceGraphic" in2="BackgroundImageFix" result="shape"/>
<feGaussianBlur stdDeviation="100" result="effect1_foregroundBlur_38_54"/>
</filter>
<filter id="filter1_f_38_54" x="172" y="0" width="1047.9" height="1015.6" filterUnits="userSpaceOnUse" color-interpolation-filters="sRGB">
<feFlood flood-opacity="0" result="BackgroundImageFix"/>
<feBlend mode="normal" in="SourceGraphic" in2="BackgroundImageFix" result="shape"/>
<feGaussianBlur stdDeviation="100" result="effect1_foregroundBlur_38_54"/>
</filter>
<filter id="filter2_f_38_54" x="718" y="172" width="838.76" height="882.647" filterUnits="userSpaceOnUse" color-interpolation-filters="sRGB">
<feFlood flood-opacity="0" result="BackgroundImageFix"/>
<feBlend mode="normal" in="SourceGraphic" in2="BackgroundImageFix" result="shape"/>
<feGaussianBlur stdDeviation="100" result="effect1_foregroundBlur_38_54"/>
</filter>
<filter id="filter3_f_38_54" x="415" y="385" width="910.261" height="922.962" filterUnits="userSpaceOnUse" color-interpolation-filters="sRGB">
<feFlood flood-opacity="0" result="BackgroundImageFix"/>
<feBlend mode="normal" in="SourceGraphic" in2="BackgroundImageFix" result="shape"/>
<feGaussianBlur stdDeviation="100" result="effect1_foregroundBlur_38_54"/>
</filter>
<filter id="filter4_f_38_54" x="0" y="330" width="1021.63" height="971.646" filterUnits="userSpaceOnUse" color-interpolation-filters="sRGB">
<feFlood flood-opacity="0" result="BackgroundImageFix"/>
<feBlend mode="normal" in="SourceGraphic" in2="BackgroundImageFix" result="shape"/>
<feGaussianBlur stdDeviation="100" result="effect1_foregroundBlur_38_54"/>
</filter>
</defs>
</svg>
